<?xml version="1.0" standalone="no"?>
<!DOCTYPE svg PUBLIC "-//W3C//DTD SVG 1.1//EN" "http://www.w3.org/Graphics/SVG/1.1/DTD/svg11.dtd" >
<svg>
<metadata>
Created by FontForge 20090622 at Fri Dec 18 15:26:31 2015
 By deploy user
Copyright (c) Mark Simonson, 2005. All rights reserved.
</metadata>
<defs>
<font id="ProximaNovaAExCn-Black" horiz-adv-x="462" >
  <font-face 
    font-family="Proxima Nova Alt ExCn Bl"
    font-weight="900"
    font-stretch="normal"
    units-per-em="1000"
    panose-1="2 0 5 6 3 0 0 2 0 4"
    ascent="790"
    descent="-210"
    x-height="483"
    cap-height="667"
    bbox="-97 -199 881 882"
    underline-thickness="20"
    underline-position="-113"
    unicode-range="U+000D-U+FB02"
  />
<missing-glyph horiz-adv-x="434" 
d="M392 -90h-351v842h351v-842zM360 -60v782h-288v-782h288z" />
    <glyph glyph-name="fi" unicode="fi" horiz-adv-x="503" 
d="M210 0h-157v346h-42v137h42v19q0 85 37 130t105 45q53 0 86 -13l-20 -124q-5 4 -18 4q-33 0 -33 -42v-19h56v-137h-56v-346zM389 525q-37 0 -63.5 26.5t-26.5 63.5q0 38 26.5 64.5t63.5 26.5t63.5 -26.5t26.5 -64.5q0 -37 -26.5 -63.5t-63.5 -26.5zM468 0h-158v483h158
v-483z" />
    <glyph glyph-name="fl" unicode="fl" horiz-adv-x="533" 
d="M210 0h-157v346h-42v137h42v19q0 85 37 130t105 45q53 0 86 -13l-20 -124q-5 4 -18 4q-33 0 -33 -42v-19h56v-137h-56v-346zM445 -12q-72 0 -103.5 34.5t-31.5 107.5v537h158v-503q0 -37 22 -37q15 0 23 8l25 -125q-32 -22 -93 -22z" />
    <glyph glyph-name=".notdef" horiz-adv-x="434" 
d="M392 -90h-351v842h351v-842zM360 -60v782h-288v-782h288z" />
    <glyph glyph-name=".null" horiz-adv-x="0" 
 />
    <glyph glyph-name="nonmarkingreturn" horiz-adv-x="333" 
 />
    <glyph glyph-name="NUL" horiz-adv-x="0" 
 />
    <glyph glyph-name="NUL" horiz-adv-x="0" 
 />
    <glyph glyph-name="CR" unicode="&#xd;" horiz-adv-x="0" 
 />
    <glyph glyph-name="space" unicode=" " horiz-adv-x="150" 
 />
    <glyph glyph-name="exclam" unicode="!" horiz-adv-x="271" 
d="M206 235h-141l-24 432h189zM135 -12q-39 0 -67.5 28.5t-28.5 67.5t28.5 67.5t67.5 28.5t67.5 -28.5t28.5 -67.5t-28.5 -67.5t-67.5 -28.5z" />
    <glyph glyph-name="quotedbl" unicode="&#x22;" horiz-adv-x="442" 
d="M153 355h-66q-49 219 -49 240q0 34 24.5 58t57.5 24q34 0 58 -24t24 -58q0 -9 -12 -69l-24 -116zM355 355h-65q-49 219 -49 240q0 34 24 58t58 24q33 0 57 -24t24 -58q0 -9 -12 -69l-24 -116z" />
    <glyph glyph-name="numbersign" unicode="#" horiz-adv-x="487" 
d="M305 0h-113l39 163h-55l-37 -163h-113l38 163h-50l23 97h50l34 146h-52l22 96h52l38 165h113l-38 -165h54l37 165h113l-38 -165h51l-21 -96h-52l-35 -146h55l-23 -97h-55zM253 260l34 146h-54l-33 -146h53z" />
    <glyph glyph-name="dollar" unicode="$" horiz-adv-x="435" 
d="M166 -100v90q-99 9 -162 69l71 138q46 -53 118 -53q22 0 34.5 12t12.5 31q0 22 -22.5 40.5t-54 35.5t-63.5 40t-54.5 66t-22.5 102q0 66 37.5 121t105.5 75v101h114v-93q81 -11 132 -58l-64 -136q-41 41 -100 41q-21 0 -33 -11.5t-12 -29.5q0 -21 22 -39t54 -36t64 -41.5
t54 -66t22 -98.5q0 -74 -37 -127.5t-102 -73.5v-99h-114z" />
    <glyph glyph-name="percent" unicode="%" horiz-adv-x="604" 
d="M151 343q-63 0 -101 47.5t-38 118.5q0 72 38.5 120t100.5 48t100 -48t38 -120q0 -71 -38 -118.5t-100 -47.5zM190 0h-60l284 667h61zM454 -12q-63 0 -101 47t-38 119t38 120.5t101 48.5q62 0 100 -48.5t38 -120.5q0 -71 -38 -118.5t-100 -47.5zM151 437q40 0 40 72
q0 74 -40 74t-40 -74q0 -72 40 -72zM454 82q40 0 40 72q0 74 -40 74t-40 -74q0 -72 40 -72z" />
    <glyph glyph-name="ampersand" unicode="&#x26;" horiz-adv-x="495" 
d="M507 0h-163l-20 30q-59 -42 -134 -42q-76 0 -125 52t-49 144q0 114 109 192q-36 84 -36 133q0 72 47 120t115 48q65 0 111.5 -45.5t46.5 -109.5q0 -43 -20.5 -79t-42 -54t-61.5 -46l26 -45l24 -40q14 44 26 93l123 -57q-30 -99 -69 -162zM227 110q19 0 36 14
q-30 48 -43 72l-34 59q-16 -27 -16 -60q0 -32 17 -58.5t40 -26.5zM224 509q0 -22 12 -61q40 33 40 69q0 49 -25 49q-27 0 -27 -57z" />
    <glyph glyph-name="quotesingle" unicode="'" horiz-adv-x="241" 
d="M153 355h-66q-49 219 -49 240q0 34 24.5 58t57.5 24q34 0 58 -24t24 -58q0 -9 -12 -69l-24 -116z" />
    <glyph glyph-name="parenleft" unicode="(" horiz-adv-x="306" 
d="M284 -146l-117 -53q-120 207 -120 442t120 442l117 -52q-66 -185 -66 -390t66 -389z" />
    <glyph glyph-name="parenright" unicode=")" horiz-adv-x="306" 
d="M140 -199l-118 53q66 184 66 389t-66 390l118 52q119 -205 119 -442t-119 -442z" />
    <glyph glyph-name="asterisk" unicode="*" horiz-adv-x="338" 
d="M206 353h-74l5 107l-90 -57l-36 63l94 49l-94 49l36 63l90 -57l-5 107h74l-5 -107l89 57l38 -63l-95 -49l95 -49l-38 -63l-89 57z" />
    <glyph glyph-name="plus" unicode="+" horiz-adv-x="388" 
d="M359 291h-113v-138h-104v138h-113v93h113v130h104v-130h113v-93z" />
    <glyph glyph-name="comma" unicode="," horiz-adv-x="273" 
d="M237 62q0 -122 -115 -205l-66 53q25 13 51 41t34 55q-8 -4 -23 -4q-33 0 -55.5 23.5t-22.5 60.5q0 39 27.5 66.5t65.5 27.5q43 0 73.5 -32t30.5 -86z" />
    <glyph glyph-name="hyphen" unicode="-" horiz-adv-x="247" 
d="M217 176h-187v132h187v-132z" />
    <glyph glyph-name="period" unicode="." horiz-adv-x="270" 
d="M135 -12q-39 0 -67 28.5t-28 67.5t28 67.5t67 28.5t67.5 -28.5t28.5 -67.5t-28.5 -67.5t-67.5 -28.5z" />
    <glyph glyph-name="slash" unicode="/" horiz-adv-x="254" 
d="M107 -20h-107l147 707h107z" />
    <glyph glyph-name="zero" unicode="0" horiz-adv-x="495" 
d="M248 -12q-74 0 -127 48.5t-78 125t-25 171.5t25 171.5t78 124.5t127 48t127 -48t77.5 -124.5t24.5 -171.5q0 -147 -60 -246t-169 -99zM248 144q29 0 39.5 41t10.5 148t-10.5 147.5t-39.5 40.5q-30 0 -40 -40t-10 -148t10 -148.5t40 -40.5z" />
    <glyph glyph-name="one" unicode="1" horiz-adv-x="405" 
d="M364 0h-177v442l-85 -87l-100 104l210 208h152v-667z" />
    <glyph glyph-name="two" unicode="2" horiz-adv-x="491" 
d="M468 0h-437v146q176 175 216 223.5t40 89.5q0 26 -16 44t-45 18q-65 0 -111 -64l-106 108q84 112 227 112q103 0 165.5 -58t62.5 -155q0 -66 -41 -130t-154 -180h199v-154z" />
    <glyph glyph-name="three" unicode="3" horiz-adv-x="490" 
d="M241 -12q-75 0 -135.5 29t-93.5 77l115 106q41 -56 106 -56q35 0 51 16.5t16 40.5q0 30 -21.5 44t-51.5 14q-33 0 -45 -1v157q8 -1 37 -1q74 0 74 54q0 53 -63 53q-28 0 -56.5 -12.5t-44.5 -37.5l-109 96q78 110 222 110q99 0 159.5 -46.5t60.5 -136.5q0 -53 -34.5 -97
t-84.5 -53q58 -10 93.5 -54.5t35.5 -103.5q0 -90 -64.5 -144t-166.5 -54z" />
    <glyph glyph-name="four" unicode="4" horiz-adv-x="495" 
d="M431 0h-177v120h-237v155l210 392h204v-393h47v-154h-47v-120zM254 274v194l-95 -194h95z" />
    <glyph glyph-name="five" unicode="5" horiz-adv-x="498" 
d="M242 -12q-151 0 -225 106l110 108q45 -58 103 -58q33 0 52 21t19 53q0 34 -16 53.5t-46 19.5q-45 0 -75 -49l-130 29v396h409v-154h-232v-123q14 23 41.5 37.5t59.5 14.5q75 0 121.5 -58t46.5 -161q0 -106 -64 -170.5t-174 -64.5z" />
    <glyph glyph-name="six" unicode="6" horiz-adv-x="491" 
d="M261 -12q-121 0 -182 95.5t-61 248.5q0 160 73 252.5t195 92.5q101 0 163 -64l-86 -130q-29 38 -73 38q-38 0 -66 -40.5t-28 -106.5v-5q15 34 47 54t71 20q68 0 114 -58.5t46 -161.5q0 -106 -61 -170.5t-152 -64.5zM250 144q22 0 34.5 22t12.5 50q0 40 -15 58.5t-35 18.5
q-31 0 -52 -43q6 -106 55 -106z" />
    <glyph glyph-name="seven" unicode="7" horiz-adv-x="451" 
d="M257 0h-188l173 513h-228v154h423v-122z" />
    <glyph glyph-name="eight" unicode="8" horiz-adv-x="491" 
d="M245 -12q-112 0 -170 48.5t-58 137.5q0 56 34.5 104.5t84.5 65.5q-48 16 -79 57.5t-31 99.5q0 59 33 100.5t80.5 58.5t105.5 17q90 0 155 -44.5t65 -131.5q0 -58 -31 -99.5t-80 -57.5q50 -17 84.5 -65.5t34.5 -103.5q0 -89 -58.5 -138t-169.5 -49zM245 398q47 24 47 66
q0 57 -47 57t-47 -57q0 -40 47 -66zM245 144q22 0 37.5 15t15.5 44q0 33 -19 54t-34 25q-15 -4 -33.5 -25t-18.5 -54q0 -30 14.5 -44.5t37.5 -14.5z" />
    <glyph glyph-name="nine" unicode="9" horiz-adv-x="491" 
d="M205 -11q-101 0 -163 64l86 130q29 -38 73 -38q36 0 65 38t29 108v6q-15 -34 -47 -54t-71 -20q-68 0 -114 59t-46 161q0 106 61 170.5t152 64.5q121 0 182 -95.5t61 -248.5q0 -160 -73 -252.5t-195 -92.5zM244 373q30 0 52 43q-6 106 -53 106q-24 0 -36.5 -21.5
t-12.5 -50.5q0 -40 15 -58.5t35 -18.5z" />
    <glyph glyph-name="colon" unicode=":" horiz-adv-x="268" 
d="M135 298q-39 0 -67 28.5t-28 67.5t28 67.5t67 28.5t67.5 -28.5t28.5 -67.5t-28.5 -67.5t-67.5 -28.5zM135 -12q-39 0 -67 28.5t-28 67.5t28 67.5t67 28.5t67.5 -28.5t28.5 -67.5t-28.5 -67.5t-67.5 -28.5z" />
    <glyph glyph-name="semicolon" unicode=";" horiz-adv-x="271" 
d="M135 298q-39 0 -67 29t-28 68t28 67t67 28t67.5 -28t28.5 -67t-28.5 -68t-67.5 -29zM237 67q0 -122 -115 -205l-66 53q25 13 51 41t34 55q-8 -4 -23 -4q-33 0 -55.5 23.5t-22.5 60.5q0 39 27.5 66.5t65.5 27.5q43 0 73.5 -32t30.5 -86z" />
    <glyph glyph-name="less" unicode="&#x3c;" horiz-adv-x="388" 
d="M359 150l-330 128v114l330 128v-112l-224 -74l224 -72v-112z" />
    <glyph glyph-name="equal" unicode="=" horiz-adv-x="388" 
d="M359 380h-330v94h330v-94zM359 195h-330v93h330v-93z" />
    <glyph glyph-name="greater" unicode="&#x3e;" horiz-adv-x="388" 
d="M359 278l-330 -128v112l223 72l-223 74v112l330 -128v-114z" />
    <glyph glyph-name="question" unicode="?" horiz-adv-x="338" 
d="M103 216q-23 30 -23 92q0 43 19.5 76.5t39 59t19.5 47.5q0 15 -9.5 25t-23.5 10q-25 0 -42 -27l-70 107q68 71 158 71q76 0 118.5 -40.5t42.5 -105.5q0 -35 -17 -70t-37.5 -58t-37.5 -52t-17 -54q0 -20 12 -37zM170 -12q-39 0 -67.5 28.5t-28.5 67.5t28.5 67.5t67.5 28.5
t67.5 -28.5t28.5 -67.5t-28.5 -67.5t-67.5 -28.5z" />
    <glyph glyph-name="at" unicode="@" horiz-adv-x="670" 
d="M279 -70q-120 0 -182 75.5t-62 208.5q0 109 49 206.5t135 157.5t185 60q102 0 166.5 -65t64.5 -173q0 -126 -53.5 -220.5t-132.5 -94.5q-36 0 -62.5 17t-33.5 47l-2 10q-50 -74 -119 -74q-42 0 -70 31t-28 102q0 107 56 193t141 86q56 0 73 -58l10 46h138l-48 -229
q-3 -15 -3 -26q0 -41 27 -41q12 0 25.5 25t24 75t10.5 109q0 93 -50 145.5t-137 52.5t-162.5 -55.5t-118 -143t-42.5 -180.5q0 -108 49.5 -177t156.5 -69q77 0 158 54l23 -32q-93 -63 -186 -63zM311 194q10 0 17.5 3.5t14.5 13t9.5 12.5t9.5 16l23 114q-8 35 -31 35
q-35 0 -55.5 -47.5t-20.5 -96.5q0 -50 33 -50z" />
    <glyph glyph-name="A" unicode="A" horiz-adv-x="484" 
d="M490 0h-181l-14 93h-107l-13 -93h-181l146 667h203zM275 247l-33 229l-33 -229h66z" />
    <glyph glyph-name="B" unicode="B" horiz-adv-x="502" 
d="M308 0h-267v667h258q90 0 133 -50t43 -120q0 -61 -30 -101t-79 -52q52 -8 85 -53.5t33 -109.5q0 -79 -43 -130t-133 -51zM249 415q46 0 46 49t-46 49h-31v-98h31zM253 154q51 0 51 54q0 53 -51 53h-35v-107h35z" />
    <glyph glyph-name="C" unicode="C" horiz-adv-x="468" 
d="M262 -12q-121 0 -182.5 93t-61.5 252t61.5 252t182.5 93q47 0 82.5 -16.5t57.5 -47.5t34 -58t23 -64l-139 -51q-8 41 -21 61t-37 20q-64 0 -64 -189t64 -189q48 0 59 93l138 -50q-47 -199 -197 -199z" />
    <glyph glyph-name="D" unicode="D" horiz-adv-x="524" 
d="M248 0h-207v667h206q67 0 117.5 -25.5t81 -71.5t45.5 -105.5t15 -131.5q0 -151 -63.5 -242t-194.5 -91zM247 154q79 0 79 179q0 180 -79 180h-29v-359h29z" />
    <glyph glyph-name="E" unicode="E" horiz-adv-x="405" 
d="M377 0h-336v667h336v-154h-159v-98h152v-154h-152v-107h159v-154z" />
    <glyph glyph-name="F" unicode="F" horiz-adv-x="400" 
d="M218 0h-177v667h336v-154h-159v-98h152v-154h-152v-261z" />
    <glyph glyph-name="G" unicode="G" horiz-adv-x="495" 
d="M256 -12q-117 0 -177.5 93t-60.5 252t61.5 252t182.5 93q77 0 127.5 -52t69.5 -134l-139 -51q-13 81 -58 81q-64 0 -64 -189t64 -189q26 0 40 27t15 60h-67v154h231q0 -198 -51.5 -297.5t-173.5 -99.5z" />
    <glyph glyph-name="H" unicode="H" horiz-adv-x="532" 
d="M490 0h-176v266h-96v-266h-177v667h177v-247h96v247h176v-667z" />
    <glyph glyph-name="I" unicode="I" horiz-adv-x="259" 
d="M218 0h-177v667h177v-667z" />
    <glyph glyph-name="J" unicode="J" horiz-adv-x="375" 
d="M121 -12q-71 0 -112 27l40 145q19 -16 50 -16q27 0 43.5 14.5t16.5 42.5v466h177v-475q0 -103 -57.5 -153.5t-157.5 -50.5z" />
    <glyph glyph-name="K" unicode="K" horiz-adv-x="524" 
d="M529 0h-198l-75 220l-38 -82v-138h-177v667h177v-269l108 269h192l-156 -311z" />
    <glyph glyph-name="L" unicode="L" horiz-adv-x="396" 
d="M377 0h-336v667h177v-513h159v-154z" />
    <glyph glyph-name="M" unicode="M" horiz-adv-x="675" 
d="M633 0h-174v321l-94 -321h-55l-92 321v-321h-177v667h219l77 -268l81 268h215v-667z" />
    <glyph glyph-name="N" unicode="N" horiz-adv-x="532" 
d="M490 0h-164l-108 278v-278h-177v667h177l96 -260v260h176v-667z" />
    <glyph glyph-name="O" unicode="O" horiz-adv-x="522" 
d="M261 -12q-120 0 -181.5 93.5t-61.5 251.5t61.5 251.5t181.5 93.5t181.5 -93.5t61.5 -251.5t-61.5 -251.5t-181.5 -93.5zM261 144q63 0 63 189t-63 189t-63 -189t63 -189z" />
    <glyph glyph-name="P" unicode="P" horiz-adv-x="496" 
d="M218 0h-177v667h223q106 0 161.5 -64t55.5 -159q0 -94 -55.5 -158t-161.5 -64h-46v-222zM244 376q27 0 42.5 18t15.5 51q0 32 -15.5 50t-42.5 18h-26v-137h26z" />
    <glyph glyph-name="Q" unicode="Q" horiz-adv-x="523" 
d="M261 -12q-120 0 -181.5 93.5t-61.5 251.5t61.5 251.5t181.5 93.5t181.5 -93.5t61.5 -251.5q0 -172 -70 -263l23 -59l-119 -47l-13 33q-30 -9 -64 -9zM261 144h7l-33 86l86 33q3 31 3 70q0 189 -63 189t-63 -189t63 -189z" />
    <glyph glyph-name="R" unicode="R" horiz-adv-x="511" 
d="M487 0h-189l-57 222h-23v-222h-177v667h232q90 0 149 -62t59 -154q0 -128 -79 -186zM244 376q27 0 42.5 18t15.5 50q0 33 -15.5 51t-42.5 18h-26v-137h26z" />
    <glyph glyph-name="S" unicode="S" horiz-adv-x="437" 
d="M205 -12q-125 0 -201 71l71 138q46 -53 118 -53q22 0 34.5 12t12.5 31q0 22 -22.5 40.5t-54 35.5t-63.5 40t-54.5 66t-22.5 102q0 84 57.5 145.5t160.5 61.5q105 0 171 -61l-64 -136q-41 41 -100 41q-21 0 -33 -11.5t-12 -29.5q0 -21 22 -39t54 -36t64 -41.5t54 -66
t22 -98.5q0 -95 -58.5 -153.5t-155.5 -58.5z" />
    <glyph glyph-name="T" unicode="T" horiz-adv-x="406" 
d="M292 0h-177v513h-97v154h370v-154h-96v-513z" />
    <glyph glyph-name="U" unicode="U" horiz-adv-x="532" 
d="M266 -12q-58 0 -107.5 22.5t-83.5 75.5t-34 128v453h177v-463q0 -62 48 -62t48 62v463h177v-453q0 -75 -34 -128t-83.5 -75.5t-107.5 -22.5z" />
    <glyph glyph-name="V" unicode="V" horiz-adv-x="484" 
d="M343 0h-203l-146 667h181l67 -443l67 443h181z" />
    <glyph glyph-name="W" unicode="W" horiz-adv-x="684" 
d="M558 0h-176l-40 346l-41 -346h-175l-122 667h178l40 -362l53 362h134l54 -362l39 362h178z" />
    <glyph glyph-name="X" unicode="X" horiz-adv-x="509" 
d="M515 0h-194l-67 191l-66 -191h-194l158 341l-150 326h195l57 -180l58 180h194l-150 -325z" />
    <glyph glyph-name="Y" unicode="Y" horiz-adv-x="489" 
d="M333 0h-177v269l-163 398h186l65 -232l66 232h186l-163 -398v-269z" />
    <glyph glyph-name="Z" unicode="Z" horiz-adv-x="412" 
d="M386 0h-360v147l153 366h-153v154h353v-140l-157 -373h164v-154z" />
    <glyph glyph-name="bracketleft" unicode="[" horiz-adv-x="227" 
d="M210 -190h-174v868h174v-101h-64v-666h64v-101z" />
    <glyph glyph-name="backslash" unicode="\" horiz-adv-x="254" 
d="M147 -20l-147 707h108l147 -707h-108z" />
    <glyph glyph-name="bracketright" unicode="]" horiz-adv-x="227" 
d="M192 -190h-174v101h63v666h-63v101h174v-868z" />
    <glyph glyph-name="asciicircum" unicode="^" horiz-adv-x="344" 
d="M325 333h-109l-45 210l-43 -210h-109l97 334h113z" />
    <glyph glyph-name="underscore" unicode="_" horiz-adv-x="279" 
d="M282 -141h-285v101h285v-101z" />
    <glyph glyph-name="grave" unicode="`" horiz-adv-x="209" 
d="M209 556h-97l-112 144h129z" />
    <glyph glyph-name="a" unicode="a" 
d="M426 0h-157v54q-32 -66 -98 -66q-74 0 -114.5 66t-40.5 188q0 119 40.5 186t114.5 67q30 0 57 -16t41 -50v54h157v-483zM228 127q25 0 41 36v158q-16 34 -41 34q-51 0 -51 -113q0 -115 51 -115z" />
    <glyph glyph-name="b" unicode="b" 
d="M193 163q15 -36 41 -36q51 0 51 115q0 114 -51 114q-27 0 -41 -35v-158zM193 0h-158v667h158v-238q14 34 41 50t57 16q73 0 114 -67.5t41 -185.5q0 -122 -40.5 -188t-114.5 -66q-67 0 -98 66v-54z" />
    <glyph glyph-name="c" unicode="c" horiz-adv-x="371" 
d="M226 -12q-95 0 -152.5 70t-57.5 184t57 183.5t153 69.5q43 0 79.5 -12.5t55.5 -29.5l-45 -123q-29 26 -57 26q-37 0 -59.5 -31t-22.5 -83t22.5 -83.5t59.5 -31.5q28 0 57 26l45 -123q-44 -42 -135 -42z" />
    <glyph glyph-name="d" unicode="d" 
d="M426 0h-157v54q-32 -66 -98 -66q-74 0 -114.5 66t-40.5 188q0 119 40.5 186t114.5 67q30 0 57 -16t41 -50v238h157v-667zM228 127q25 0 41 36v159q-16 34 -41 34q-51 0 -51 -114q0 -115 51 -115z" />
    <glyph glyph-name="e" unicode="e" horiz-adv-x="435" 
d="M233 -12q-101 0 -159 69.5t-58 184.5q0 110 55.5 181.5t153.5 71.5t147.5 -67.5t49.5 -182.5v-55h-255q1 -33 21.5 -54t62.5 -21t81 37l69 -90q-32 -36 -77.5 -55t-90.5 -19zM273 297q0 71 -53 71t-53 -71h106z" />
    <glyph glyph-name="f" unicode="f" horiz-adv-x="275" 
d="M210 0h-157v346h-42v137h42v19q0 85 37 130t105 45q53 0 86 -13l-20 -124q-5 4 -18 4q-33 0 -33 -42v-19h56v-137h-56v-346z" />
    <glyph glyph-name="g" unicode="g" 
d="M209 -196q-109 0 -169 55l48 123q50 -45 103 -45q35 0 56.5 23.5t21.5 71.5v49q-33 -67 -98 -67q-155 0 -155 240q0 118 40 179.5t115 61.5q30 0 57 -16t41 -50v54h157v-451q0 -65 -18.5 -111.5t-51 -71t-68.5 -35t-79 -10.5zM228 153q26 0 41 34v135q-15 34 -41 34
q-28 0 -39.5 -24.5t-11.5 -77.5t11.5 -77t39.5 -24z" />
    <glyph glyph-name="h" unicode="h" 
d="M427 0h-158v319q0 37 -29 37q-30 0 -47 -47v-309h-158v667h158v-242q14 27 50 48.5t70 21.5q114 0 114 -113v-382z" />
    <glyph glyph-name="i" unicode="i" horiz-adv-x="228" 
d="M114 525q-38 0 -64 26.5t-26 63.5q0 38 26.5 64.5t63.5 26.5t63.5 -26.5t26.5 -64.5q0 -37 -26 -63.5t-64 -26.5zM193 0h-158v483h158v-483z" />
    <glyph glyph-name="j" unicode="j" horiz-adv-x="228" 
d="M114 525q-38 0 -64 26.5t-26 63.5q0 38 26.5 64.5t63.5 26.5t63.5 -26.5t26.5 -64.5q0 -37 -26 -63.5t-64 -26.5zM17 -196q-39 0 -62 16l26 124q9 -7 23 -7q31 0 31 50v496h158v-496q0 -90 -40.5 -136.5t-135.5 -46.5z" />
    <glyph glyph-name="k" unicode="k" horiz-adv-x="445" 
d="M450 0h-173l-51 166l-33 -64v-102h-158v667h158v-362l74 178h174l-108 -213z" />
    <glyph glyph-name="l" unicode="l" horiz-adv-x="258" 
d="M170 -12q-72 0 -103.5 34.5t-31.5 107.5v537h158v-503q0 -37 22 -37q15 0 23 8l25 -125q-32 -22 -93 -22z" />
    <glyph glyph-name="m" unicode="m" horiz-adv-x="696" 
d="M660 0h-157v318q0 38 -29 38q-31 0 -47 -47v-309h-158v318q0 38 -29 38q-31 0 -47 -47v-309h-158v483h158v-58q11 24 48 47t72 23q92 0 109 -78q13 29 50 53.5t75 24.5q51 0 82 -28t31 -87v-380z" />
    <glyph glyph-name="n" unicode="n" 
d="M427 0h-158v318q0 38 -29 38q-30 0 -47 -47v-309h-158v483h158v-58q14 27 50 48.5t70 21.5q59 0 86.5 -31t27.5 -84v-380z" />
    <glyph glyph-name="o" unicode="o" horiz-adv-x="451" 
d="M225 -12q-101 0 -155 73t-54 181t54 180.5t155 72.5q102 0 156.5 -72.5t54.5 -180.5t-54.5 -181t-156.5 -73zM225 127q49 0 49 115q0 114 -49 114q-47 0 -47 -114q0 -115 47 -115z" />
    <glyph glyph-name="p" unicode="p" 
d="M291 -12q-30 0 -57 16.5t-41 49.5v-238h-158v667h158v-54q31 66 98 66q74 0 114.5 -66t40.5 -188q0 -118 -41 -185.5t-114 -67.5zM234 127q51 0 51 114q0 115 -51 115q-28 0 -41 -33v-162q14 -34 41 -34z" />
    <glyph glyph-name="q" unicode="q" 
d="M228 127q26 0 41 34v162q-15 33 -41 33q-51 0 -51 -115q0 -114 51 -114zM171 -12q-74 0 -114.5 67t-40.5 186q0 122 40.5 188t114.5 66q66 0 98 -66v54h157v-667h-157v238q-14 -33 -41 -49.5t-57 -16.5z" />
    <glyph glyph-name="r" unicode="r" horiz-adv-x="309" 
d="M193 0h-158v483h158v-58q12 28 45 49.5t60 21.5v-151q-16 4 -26 4q-20 0 -42.5 -12t-36.5 -31v-306z" />
    <glyph glyph-name="s" unicode="s" horiz-adv-x="382" 
d="M186 -12q-121 0 -182 65l60 109q51 -51 107 -51q50 0 50 31q0 13 -20.5 22t-50 18t-58.5 24.5t-49.5 50t-20.5 84.5q0 65 47 109.5t134 44.5q93 0 167 -60l-60 -106q-16 16 -44.5 29.5t-58.5 13.5q-17 0 -28.5 -7.5t-11.5 -18.5q0 -12 21 -20.5t51 -18.5t60 -26t51 -50.5
t21 -83.5q0 -70 -51 -114.5t-134 -44.5z" />
    <glyph glyph-name="t" unicode="t" horiz-adv-x="282" 
d="M187 -12q-71 0 -102.5 34.5t-31.5 107.5v216h-42v137h42v132h157v-132h56v-137h-56v-182q0 -37 22 -37q17 0 23 8l25 -125q-32 -22 -93 -22z" />
    <glyph glyph-name="u" unicode="u" 
d="M427 0h-158v56q-14 -27 -49.5 -47.5t-70.5 -20.5q-114 0 -114 113v382h158v-319q0 -37 29 -37q15 0 27.5 13t19.5 32v311h158v-483z" />
    <glyph glyph-name="v" unicode="v" horiz-adv-x="435" 
d="M301 0h-167l-140 483h166l57 -285l58 285h167z" />
    <glyph glyph-name="w" unicode="w" horiz-adv-x="674" 
d="M560 0h-166l-57 269l-57 -269h-166l-117 483h162l51 -273l49 273h146l59 -273l50 273h163z" />
    <glyph glyph-name="x" unicode="x" horiz-adv-x="418" 
d="M423 0h-167l-47 129l-48 -129h-166l115 242l-111 241h165l44 -127l45 127h165l-111 -241z" />
    <glyph glyph-name="y" unicode="y" 
d="M213 -196q-114 0 -169 55l49 123q43 -45 102 -45q74 0 74 95v49q-14 -26 -49.5 -46.5t-70.5 -20.5q-114 0 -114 112v357h158v-294q0 -36 29 -36q31 0 47 44v286h158v-451q0 -110 -53.5 -169t-160.5 -59z" />
    <glyph glyph-name="z" unicode="z" horiz-adv-x="368" 
d="M349 0h-330v116l135 230h-135v137h326v-111l-137 -235h141v-137z" />
    <glyph glyph-name="braceleft" unicode="{" horiz-adv-x="237" 
d="M220 -190h-26q-56 0 -97.5 37.5t-41.5 93.5v196q0 29 -13.5 47t-38.5 18v84q25 0 38.5 18t13.5 47v195q0 56 41.5 94t97.5 38h26v-101h-26q-12 0 -20 -9t-8 -22v-212q0 -70 -46 -90q46 -20 46 -90v-213q0 -13 8 -21.5t20 -8.5h26v-101z" />
    <glyph glyph-name="bar" unicode="|" horiz-adv-x="184" 
d="M143 -20h-102v707h102v-707z" />
    <glyph glyph-name="braceright" unicode="}" horiz-adv-x="237" 
d="M17 -190v101h26q12 0 20.5 8.5t8.5 21.5v213q0 70 46 90q-46 20 -46 90v212q0 13 -8.5 22t-20.5 9h-26v101h26q56 0 97.5 -38t41.5 -94v-195q0 -29 13.5 -47t38.5 -18v-84q-25 0 -38.5 -18t-13.5 -47v-196q0 -56 -41.5 -93.5t-97.5 -37.5h-26z" />
    <glyph glyph-name="asciitilde" unicode="~" horiz-adv-x="437" 
d="M309 667l103 -8q-1 -31 -3 -53.5t-7 -55t-14.5 -55.5t-23 -44.5t-35.5 -33t-50 -11.5q-38 0 -61 26t-28.5 58t-12.5 58t-17 26q-14 0 -19.5 -32t-10.5 -136l-105 7q10 254 135 254q38 0 61 -26.5t28.5 -58t12.5 -58t17 -26.5q13 0 19 33t11 136z" />
    <glyph glyph-name="uni00A0" unicode="&#xa0;" horiz-adv-x="150" 
 />
    <glyph glyph-name="exclamdown" unicode="&#xa1;" horiz-adv-x="271" 
d="M41 -184l24 432h141l24 -432h-189zM40 399q0 39 28 67.5t68 28.5q39 0 67.5 -28.5t28.5 -67.5q0 -40 -28.5 -68.5t-67.5 -28.5q-40 0 -68 28.5t-28 68.5z" />
    <glyph glyph-name="cent" unicode="&#xa2;" horiz-adv-x="371" 
d="M155 -100v100q-65 23 -102 87t-37 155t37 154.5t102 86.5v82h112v-73q62 -10 94 -39l-45 -123q-29 26 -57 26q-37 0 -59.5 -31t-22.5 -83t22.5 -83.5t59.5 -31.5q28 0 57 26l45 -123q-30 -28 -94 -39v-91h-112z" />
    <glyph glyph-name="sterling" unicode="&#xa3;" horiz-adv-x="469" 
d="M30 281v97h31q-18 49 -18 92q0 89 68.5 148t152.5 59q75 0 128 -38t64 -111l-142 -57q-9 64 -40 64q-17 0 -28.5 -18t-11.5 -49q0 -40 16 -90h67v-97h-47v-13q0 -28 -13.5 -61t-33.5 -50q22 8 36 8q22 0 48 -10.5t45 -10.5q47 0 70 25l41 -140q-16 -17 -51.5 -29
t-75.5 -12q-42 0 -86.5 21t-66.5 21q-43 0 -92 -37l-46 117q31 21 50.5 50t19.5 57q0 30 -12 64h-73z" />
    <glyph glyph-name="yen" unicode="&#xa5;" horiz-adv-x="489" 
d="M333 0h-177v110h-128v94h128v65h-128v93h90l-125 305h186l65 -232l66 232h186l-125 -305h87v-93h-125v-65h125v-94h-125v-110z" />
    <glyph glyph-name="brokenbar" unicode="&#xa6;" horiz-adv-x="184" 
d="M143 -20h-102v316h102v-316zM143 371h-102v316h102v-316z" />
    <glyph glyph-name="section" unicode="&#xa7;" horiz-adv-x="384" 
d="M371 329q0 -80 -70 -127q70 -44 70 -124q0 -68 -53 -113.5t-132 -45.5q-120 0 -182 65l60 104q17 -19 48 -36.5t59 -17.5q26 0 38 11.5t12 28.5q0 18 -20.5 31t-50 24t-58.5 26t-49.5 47t-20.5 78q0 83 76 123q-76 43 -76 128q0 64 47.5 105t122.5 41q111 0 176 -63
l-58 -94q-50 48 -99 48q-44 0 -44 -35q0 -16 21 -28.5t51 -23.5t60 -27t51 -48t21 -77zM234 289q0 51 -39 69q-36 -11 -36 -47q0 -45 50 -66q25 15 25 44z" />
    <glyph glyph-name="dieresis" unicode="&#xa8;" horiz-adv-x="291" 
d="M319 615q0 -34 -23.5 -57t-57.5 -23q-33 0 -56.5 23t-23.5 57t23.5 57t56.5 23q34 0 57.5 -23t23.5 -57zM133 615q0 -33 -23 -56.5t-57 -23.5q-33 0 -56.5 23.5t-23.5 56.5t23.5 56.5t56.5 23.5q34 0 57 -23.5t23 -56.5z" />
    <glyph glyph-name="copyright" unicode="&#xa9;" horiz-adv-x="778" 
d="M734 334q0 -142 -101 -243.5t-244 -101.5t-244 101.5t-101 243.5t101 243.5t244 101.5t244 -101.5t101 -243.5zM694 334q0 125 -90 215t-215 90t-215 -90t-90 -215t90 -215t215 -90t215 90t90 215zM511 227l36 -34q-59 -69 -151 -69q-87 0 -147.5 60t-60.5 151
q0 90 60.5 149.5t147.5 59.5q92 0 149 -67l-35 -35q-43 58 -114 58q-66 0 -111.5 -46.5t-45.5 -118.5q0 -71 46 -119t111 -48q71 0 115 59z" />
    <glyph glyph-name="ordfeminine" unicode="&#xaa;" horiz-adv-x="322" 
d="M293 326h-112v30q-22 -38 -75 -38q-40 0 -67 26t-27 76q0 49 27 75.5t67 26.5q52 0 75 -34v27q0 23 -13 36.5t-35 13.5q-36 0 -69 -35l-39 72q45 46 133 46q60 0 97.5 -28.5t37.5 -85.5v-208zM151 390q22 0 30 20v28q-9 20 -30 20q-29 0 -29 -34t29 -34z" />
    <glyph glyph-name="guillemotleft" unicode="&#xab;" horiz-adv-x="446" 
d="M416 63h-118l-90 180l90 177h118l-90 -177zM237 63h-117l-90 180l90 177h117l-90 -177z" />
    <glyph glyph-name="logicalnot" unicode="&#xac;" horiz-adv-x="388" 
d="M359 474v-279h-97v185h-233v94h330z" />
    <glyph glyph-name="registered" unicode="&#xae;" horiz-adv-x="494" 
d="M459 465q0 -88 -62 -150t-150 -62t-150 62t-62 150t62 150t150 62q89 0 150.5 -61.5t61.5 -150.5zM425 465q0 75 -52 126.5t-126 51.5t-126 -51.5t-52 -126.5q0 -74 52 -126t126 -52t126 52t52 126zM348 343h-44l-63 96h-40v-96h-36v243h99q32 0 56.5 -21t24.5 -53
q0 -35 -22.5 -53.5t-39.5 -18.5zM308 512q0 19 -13.5 31.5t-30.5 12.5h-63v-86h63q17 0 30.5 12t13.5 30z" />
    <glyph glyph-name="macron" unicode="&#xaf;" horiz-adv-x="268" 
d="M268 591h-268v87h268v-87z" />
    <glyph glyph-name="degree" unicode="&#xb0;" horiz-adv-x="322" 
d="M304 534q0 -59 -42 -101t-101 -42t-101 42t-42 101t42 101t101 42t101 -42t42 -101zM223 534q0 25 -18.5 43.5t-43.5 18.5t-43 -18t-18 -44t18 -43.5t43 -17.5t43.5 18t18.5 43z" />
    <glyph glyph-name="plusminus" unicode="&#xb1;" horiz-adv-x="388" 
d="M359 291h-113v-138h-104v138h-113v93h113v130h104v-130h113v-93zM359 9h-330v94h330v-94z" />
    <glyph glyph-name="twosuperior" unicode="&#xb2;" horiz-adv-x="322" 
d="M311 421h-286v84q110 95 139.5 129.5t29.5 61.5q0 17 -11.5 28t-31.5 11q-42 0 -73 -45l-68 70q57 67 149 67q69 0 109.5 -33.5t40.5 -93.5q0 -40 -31 -80.5t-108 -106.5h141v-92z" />
    <glyph glyph-name="threesuperior" unicode="&#xb3;" horiz-adv-x="322" 
d="M309 533q0 -54 -42 -86.5t-108 -32.5q-103 0 -149 63l70 71q31 -42 74 -42q21 0 32 10.5t11 24.5q0 37 -50 37q-24 0 -30 -1v91q5 -1 26 -1q49 0 49 34t-41 34q-46 0 -69 -37l-68 63q50 66 145 66q66 0 105 -28.5t39 -81.5q0 -33 -21.5 -59t-54.5 -31q36 -5 59 -32
t23 -62z" />
    <glyph glyph-name="acute" unicode="&#xb4;" horiz-adv-x="209" 
d="M209 700l-112 -144h-97l80 144h129z" />
    <glyph glyph-name="mu" unicode="&#xb5;" 
d="M193 -184h-158v667h158v-319q0 -37 29 -37q15 0 27.5 13t19.5 32v311h158v-483h-158v56q-11 -21 -32 -40.5t-44 -27.5v-172z" />
    <glyph glyph-name="paragraph" unicode="&#xb6;" horiz-adv-x="449" 
d="M417 -100h-73v695h-72v-695h-73v423q-71 0 -121.5 50.5t-50.5 121.5t50.5 121.5t121.5 50.5h218v-767z" />
    <glyph glyph-name="periodcentered" unicode="&#xb7;" horiz-adv-x="270" 
d="M231 244q0 -39 -28.5 -67.5t-67.5 -28.5t-67.5 28.5t-28.5 67.5q0 40 28.5 68.5t67.5 28.5t67.5 -28.5t28.5 -68.5z" />
    <glyph glyph-name="cedilla" unicode="&#xb8;" horiz-adv-x="199" 
d="M95 -198q-55 0 -95 33l27 57q33 -28 63 -28q35 0 35 28q0 20 -18 20q-13 0 -23 -12l-53 30l30 81h73l-26 -60q15 9 29 9q27 0 44.5 -20t17.5 -51q0 -41 -28.5 -64t-75.5 -23z" />
    <glyph glyph-name="onesuperior" unicode="&#xb9;" horiz-adv-x="273" 
d="M239 421h-117v252l-53 -53l-66 68l136 133h100v-400z" />
    <glyph glyph-name="ordmasculine" unicode="&#xba;" horiz-adv-x="327" 
d="M163 318q-69 0 -108 48t-39 117q0 70 38.5 117.5t108.5 47.5q71 0 109.5 -47.5t38.5 -117.5t-38.5 -117.5t-109.5 -47.5zM163 407q20 0 26.5 18t6.5 58t-6.5 57.5t-26.5 17.5q-32 0 -32 -75q0 -76 32 -76z" />
    <glyph glyph-name="guillemotright" unicode="&#xbb;" horiz-adv-x="446" 
d="M237 243l-90 -180h-117l90 180l-90 177h117zM416 243l-90 -180h-118l90 180l-90 177h118z" />
    <glyph glyph-name="onequarter" unicode="&#xbc;" horiz-adv-x="720" 
d="M534 667l-285 -667h-60l284 667h61zM710 77h-31v-77h-117v77h-154v89l131 234h140v-232h31v-91zM562 168v109l-57 -109h57zM239 267h-117v252l-53 -53l-66 68l136 133h100v-400z" />
    <glyph glyph-name="onehalf" unicode="&#xbd;" horiz-adv-x="758" 
d="M534 667l-285 -667h-60l284 667h61zM748 0h-286v84q110 95 139.5 129.5t29.5 61.5q0 17 -11.5 28t-31.5 11q-42 0 -73 -45l-68 70q57 67 149 67q69 0 109.5 -33.5t40.5 -93.5q0 -40 -31 -80.5t-108 -106.5h141v-92zM239 267h-117v252l-53 -53l-66 68l136 133h100v-400z
" />
    <glyph glyph-name="threequarters" unicode="&#xbe;" horiz-adv-x="756" 
d="M570 667l-285 -667h-60l284 667h61zM746 77h-31v-77h-117v77h-154v89l131 234h140v-232h31v-91zM598 168v109l-57 -109h57zM309 379q0 -54 -42 -86.5t-108 -32.5q-103 0 -149 63l70 71q31 -42 74 -42q21 0 32 10.5t11 24.5q0 37 -50 37q-24 0 -30 -1v91q5 -1 26 -1
q49 0 49 34t-41 34q-46 0 -69 -37l-68 63q50 66 145 66q66 0 105 -28.5t39 -81.5q0 -33 -21.5 -59t-54.5 -31q36 -5 59 -32t23 -62z" />
    <glyph glyph-name="questiondown" unicode="&#xbf;" horiz-adv-x="304" 
d="M235 267q23 -34 23 -92q0 -34 -12 -63t-27 -45.5t-27 -37t-12 -38.5q0 -15 9 -25t24 -10q24 0 42 28l70 -107q-67 -72 -159 -72q-75 0 -117.5 40.5t-42.5 105.5q0 36 17 70.5t37 57.5t37 52t17 54q0 20 -11 38zM167 495q39 0 67.5 -28.5t28.5 -67.5t-28.5 -67.5
t-67.5 -28.5t-67 28.5t-28 67.5t28 67.5t67 28.5z" />
    <glyph glyph-name="Agrave" unicode="&#xc0;" horiz-adv-x="484" 
d="M319 728h-97l-112 144h129zM490 0h-181l-14 93h-107l-13 -93h-181l146 667h203zM275 247l-33 229l-33 -229h66z" />
    <glyph glyph-name="Aacute" unicode="&#xc1;" horiz-adv-x="484" 
d="M375 872l-112 -144h-97l80 144h129zM490 0h-181l-14 93h-107l-13 -93h-181l146 667h203zM275 247l-33 229l-33 -229h66z" />
    <glyph glyph-name="Acircumflex" unicode="&#xc2;" horiz-adv-x="484" 
d="M373 728h-84l-47 79l-45 -79h-84l60 144h138zM490 0h-181l-14 93h-107l-13 -93h-181l146 667h203zM275 247l-33 229l-33 -229h66z" />
    <glyph glyph-name="Atilde" unicode="&#xc3;" horiz-adv-x="484" 
d="M289 726q-21 0 -37 13.5t-27.5 27t-21.5 13.5q-24 0 -24 -48h-79q0 61 26 97.5t71 36.5q22 0 37.5 -13t27 -26.5t21.5 -13.5q24 0 24 47h79q0 -61 -26 -97.5t-71 -36.5zM490 0h-181l-14 93h-107l-13 -93h-181l146 667h203zM275 247l-33 229l-33 -229h66z" />
    <glyph glyph-name="Adieresis" unicode="&#xc4;" horiz-adv-x="484" 
d="M415 790q0 -34 -23.5 -57t-57.5 -23q-33 0 -56.5 23t-23.5 57t23.5 57t56.5 23q34 0 57.5 -23t23.5 -57zM229 790q0 -33 -23 -56.5t-57 -23.5q-33 0 -56.5 23.5t-23.5 56.5t23.5 56.5t56.5 23.5q34 0 57 -23.5t23 -56.5zM490 0h-181l-14 93h-107l-13 -93h-181l146 667
h203zM275 247l-33 229l-33 -229h66z" />
    <glyph glyph-name="Aring" unicode="&#xc5;" horiz-adv-x="484" 
d="M243 693q-39 0 -67 28t-28 67t28 66.5t67 27.5t66 -27.5t27 -66.5t-27 -67t-66 -28zM243 757q13 0 21.5 9t8.5 22t-8.5 22t-21.5 9t-22 -9t-9 -22t9 -22t22 -9zM490 0h-181l-14 93h-107l-13 -93h-181l146 667h203zM275 247l-33 229l-33 -229h66z" />
    <glyph glyph-name="AE" unicode="&#xc6;" horiz-adv-x="659" 
d="M640 0h-335v93h-103l-26 -93h-180l232 667h412v-154h-159v-98h152v-154h-152v-107h159v-154zM305 247v229l-62 -229h62z" />
    <glyph glyph-name="Ccedilla" unicode="&#xc7;" horiz-adv-x="468" 
d="M258 -194q-55 0 -95 33l27 57q33 -28 63 -28q35 0 35 28q0 20 -18 20q-13 0 -23 -12l-53 30l21 58q-98 17 -147.5 108t-49.5 233q0 159 61.5 252t182.5 93q47 0 82.5 -16.5t57.5 -47.5t34 -58t23 -64l-139 -51q-8 41 -21 61t-37 20q-64 0 -64 -189t64 -189q48 0 59 93
l138 -50q-44 -184 -173 -197l-15 -35q15 9 29 9q27 0 44.5 -20t17.5 -51q0 -41 -28.5 -64t-75.5 -23z" />
    <glyph glyph-name="Egrave" unicode="&#xc8;" horiz-adv-x="405" 
d="M288 728h-97l-112 144h129zM377 0h-336v667h336v-154h-159v-98h152v-154h-152v-107h159v-154z" />
    <glyph glyph-name="Eacute" unicode="&#xc9;" horiz-adv-x="405" 
d="M347 872l-112 -144h-97l80 144h129zM377 0h-336v667h336v-154h-159v-98h152v-154h-152v-107h159v-154z" />
    <glyph glyph-name="Ecircumflex" unicode="&#xca;" horiz-adv-x="405" 
d="M339 728h-84l-47 79l-45 -79h-84l60 144h138zM377 0h-336v667h336v-154h-159v-98h152v-154h-152v-107h159v-154z" />
    <glyph glyph-name="Edieresis" unicode="&#xcb;" horiz-adv-x="405" 
d="M385 790q0 -34 -23.5 -57t-57.5 -23q-33 0 -56.5 23t-23.5 57t23.5 57t56.5 23q34 0 57.5 -23t23.5 -57zM199 790q0 -33 -23 -56.5t-57 -23.5q-33 0 -56.5 23.5t-23.5 56.5t23.5 56.5t56.5 23.5q34 0 57 -23.5t23 -56.5zM377 0h-336v667h336v-154h-159v-98h152v-154h-152
v-107h159v-154z" />
    <glyph glyph-name="Igrave" unicode="&#xcc;" horiz-adv-x="259" 
d="M205 728h-97l-112 144h129zM218 0h-177v667h177v-667z" />
    <glyph glyph-name="Iacute" unicode="&#xcd;" horiz-adv-x="259" 
d="M264 872l-112 -144h-97l80 144h129zM218 0h-177v667h177v-667z" />
    <glyph glyph-name="Icircumflex" unicode="&#xce;" horiz-adv-x="259" 
d="M259 728h-84l-47 79l-45 -79h-84l60 144h138zM218 0h-177v667h177v-667z" />
    <glyph glyph-name="Idieresis" unicode="&#xcf;" horiz-adv-x="259" 
d="M304 790q0 -34 -23.5 -57t-57.5 -23q-33 0 -56.5 23t-23.5 57t23.5 57t56.5 23q34 0 57.5 -23t23.5 -57zM118 790q0 -33 -23 -56.5t-57 -23.5q-33 0 -56.5 23.5t-23.5 56.5t23.5 56.5t56.5 23.5q34 0 57 -23.5t23 -56.5zM218 0h-177v667h177v-667z" />
    <glyph glyph-name="Eth" unicode="&#xd0;" horiz-adv-x="550" 
d="M274 0h-207v264h-56v136h56v267h206q67 0 117.5 -25.5t81 -71.5t45.5 -105.5t15 -131.5q0 -151 -63.5 -242t-194.5 -91zM299 264h-55v-110h29q79 0 79 179q0 180 -79 180h-29v-113h55v-136z" />
    <glyph glyph-name="Ntilde" unicode="&#xd1;" horiz-adv-x="532" 
d="M313 726q-21 0 -37 13.5t-27.5 27t-21.5 13.5q-24 0 -24 -48h-79q0 61 26 97.5t71 36.5q22 0 37.5 -13t27 -26.5t21.5 -13.5q24 0 24 47h79q0 -61 -26 -97.5t-71 -36.5zM490 0h-164l-108 278v-278h-177v667h177l96 -260v260h176v-667z" />
    <glyph glyph-name="Ograve" unicode="&#xd2;" horiz-adv-x="522" 
d="M337 728h-97l-112 144h129zM261 -12q-120 0 -181.5 93.5t-61.5 251.5t61.5 251.5t181.5 93.5t181.5 -93.5t61.5 -251.5t-61.5 -251.5t-181.5 -93.5zM261 144q63 0 63 189t-63 189t-63 -189t63 -189z" />
    <glyph glyph-name="Oacute" unicode="&#xd3;" horiz-adv-x="522" 
d="M394 872l-112 -144h-97l80 144h129zM261 -12q-120 0 -181.5 93.5t-61.5 251.5t61.5 251.5t181.5 93.5t181.5 -93.5t61.5 -251.5t-61.5 -251.5t-181.5 -93.5zM261 144q63 0 63 189t-63 189t-63 -189t63 -189z" />
    <glyph glyph-name="Ocircumflex" unicode="&#xd4;" horiz-adv-x="522" 
d="M392 728h-84l-47 79l-45 -79h-84l60 144h138zM261 -12q-120 0 -181.5 93.5t-61.5 251.5t61.5 251.5t181.5 93.5t181.5 -93.5t61.5 -251.5t-61.5 -251.5t-181.5 -93.5zM261 144q63 0 63 189t-63 189t-63 -189t63 -189z" />
    <glyph glyph-name="Otilde" unicode="&#xd5;" horiz-adv-x="522" 
d="M308 726q-22 0 -37.5 13.5t-27 27t-21.5 13.5q-24 0 -24 -48h-79q0 61 26 97.5t71 36.5q22 0 37.5 -13t27 -26.5t21.5 -13.5q24 0 24 47h79q0 -61 -26 -97.5t-71 -36.5zM261 -12q-120 0 -181.5 93.5t-61.5 251.5t61.5 251.5t181.5 93.5t181.5 -93.5t61.5 -251.5
t-61.5 -251.5t-181.5 -93.5zM261 144q63 0 63 189t-63 189t-63 -189t63 -189z" />
    <glyph glyph-name="Odieresis" unicode="&#xd6;" horiz-adv-x="522" 
d="M435 790q0 -34 -23.5 -57t-57.5 -23q-33 0 -56.5 23t-23.5 57t23.5 57t56.5 23q34 0 57.5 -23t23.5 -57zM249 790q0 -33 -23 -56.5t-57 -23.5q-33 0 -56.5 23.5t-23.5 56.5t23.5 56.5t56.5 23.5q34 0 57 -23.5t23 -56.5zM261 -12q-120 0 -181.5 93.5t-61.5 251.5
t61.5 251.5t181.5 93.5t181.5 -93.5t61.5 -251.5t-61.5 -251.5t-181.5 -93.5zM261 144q63 0 63 189t-63 189t-63 -189t63 -189z" />
    <glyph glyph-name="multiply" unicode="&#xd7;" horiz-adv-x="388" 
d="M289 174l-95 94l-94 -94l-67 66l95 94l-95 94l67 66l94 -94l95 94l66 -66l-94 -94l94 -94z" />
    <glyph glyph-name="Oslash" unicode="&#xd8;" horiz-adv-x="522" 
d="M261 -12q-71 0 -122 34l-12 -22h-95l46 84q-60 89 -60 249q0 158 61.5 251.5t181.5 93.5q71 0 122 -34l13 23h95l-47 -85q60 -89 60 -249q0 -158 -61.5 -251.5t-181.5 -93.5zM198 333v-28l103 188q-15 29 -40 29q-63 0 -63 -189zM261 144q63 0 63 189q0 5 -0.5 14
t-0.5 13l-102 -188q14 -28 40 -28z" />
    <glyph glyph-name="Ugrave" unicode="&#xd9;" horiz-adv-x="532" 
d="M344 728h-97l-112 144h129zM266 -12q-58 0 -107.5 22.5t-83.5 75.5t-34 128v453h177v-463q0 -62 48 -62t48 62v463h177v-453q0 -75 -34 -128t-83.5 -75.5t-107.5 -22.5z" />
    <glyph glyph-name="Uacute" unicode="&#xda;" horiz-adv-x="532" 
d="M400 872l-112 -144h-97l80 144h129zM266 -12q-58 0 -107.5 22.5t-83.5 75.5t-34 128v453h177v-463q0 -62 48 -62t48 62v463h177v-453q0 -75 -34 -128t-83.5 -75.5t-107.5 -22.5z" />
    <glyph glyph-name="Ucircumflex" unicode="&#xdb;" horiz-adv-x="532" 
d="M398 728h-84l-47 79l-45 -79h-84l60 144h138zM266 -12q-58 0 -107.5 22.5t-83.5 75.5t-34 128v453h177v-463q0 -62 48 -62t48 62v463h177v-453q0 -75 -34 -128t-83.5 -75.5t-107.5 -22.5z" />
    <glyph glyph-name="Udieresis" unicode="&#xdc;" horiz-adv-x="532" 
d="M439 790q0 -34 -23.5 -57t-57.5 -23q-33 0 -56.5 23t-23.5 57t23.5 57t56.5 23q34 0 57.5 -23t23.5 -57zM253 790q0 -33 -23 -56.5t-57 -23.5q-33 0 -56.5 23.5t-23.5 56.5t23.5 56.5t56.5 23.5q34 0 57 -23.5t23 -56.5zM266 -12q-58 0 -107.5 22.5t-83.5 75.5t-34 128
v453h177v-463q0 -62 48 -62t48 62v463h177v-453q0 -75 -34 -128t-83.5 -75.5t-107.5 -22.5z" />
    <glyph glyph-name="Yacute" unicode="&#xdd;" horiz-adv-x="489" 
d="M378 872l-112 -144h-97l80 144h129zM333 0h-177v269l-163 398h186l65 -232l66 232h186l-163 -398v-269z" />
    <glyph glyph-name="Thorn" unicode="&#xde;" horiz-adv-x="496" 
d="M218 0h-177v667h177v-101h46q106 0 161.5 -64t55.5 -159q0 -94 -55.5 -158t-161.5 -64h-46v-121zM244 275q27 0 42.5 18t15.5 50t-16 50.5t-42 18.5h-26v-137h26z" />
    <glyph glyph-name="germandbls" unicode="&#xdf;" horiz-adv-x="581" 
d="M570 147q0 -62 -48.5 -110.5t-125.5 -48.5q-116 0 -172 56l52 113q15 -17 40 -30.5t46 -13.5q41 0 41 30q0 13 -17 24t-41.5 22.5t-48.5 27.5t-41 46t-17 70q0 33 14 58.5t30 38t30 29.5t14 35q0 19 -17 31.5t-44 12.5q-70 0 -70 -77v-461h-158v461q0 91 62 153.5
t166 62.5q87 0 153.5 -48t66.5 -116q0 -37 -14.5 -66t-32.5 -43t-32.5 -29t-14.5 -28q0 -12 18.5 -21t45 -19t52.5 -26t44.5 -50.5t18.5 -83.5z" />
    <glyph glyph-name="agrave" unicode="&#xe0;" 
d="M305 556h-97l-112 144h129zM426 0h-157v54q-32 -66 -98 -66q-74 0 -114.5 66t-40.5 188q0 119 40.5 186t114.5 67q30 0 57 -16t41 -50v54h157v-483zM228 127q25 0 41 36v158q-16 34 -41 34q-51 0 -51 -113q0 -115 51 -115z" />
    <glyph glyph-name="aacute" unicode="&#xe1;" 
d="M362 700l-112 -144h-97l80 144h129zM426 0h-157v54q-32 -66 -98 -66q-74 0 -114.5 66t-40.5 188q0 119 40.5 186t114.5 67q30 0 57 -16t41 -50v54h157v-483zM228 127q25 0 41 36v158q-16 34 -41 34q-51 0 -51 -113q0 -115 51 -115z" />
    <glyph glyph-name="acircumflex" unicode="&#xe2;" 
d="M361 556h-84l-47 79l-45 -79h-84l60 144h138zM426 0h-157v54q-32 -66 -98 -66q-74 0 -114.5 66t-40.5 188q0 119 40.5 186t114.5 67q30 0 57 -16t41 -50v54h157v-483zM228 127q25 0 41 36v158q-16 34 -41 34q-51 0 -51 -113q0 -115 51 -115z" />
    <glyph glyph-name="atilde" unicode="&#xe3;" 
d="M277 554q-21 0 -37 13.5t-27.5 27t-21.5 13.5q-24 0 -24 -48h-79q0 61 26 97.5t71 36.5q22 0 37.5 -13t27 -26.5t21.5 -13.5q24 0 24 47h79q0 -61 -26 -97.5t-71 -36.5zM426 0h-157v54q-32 -66 -98 -66q-74 0 -114.5 66t-40.5 188q0 119 40.5 186t114.5 67q30 0 57 -16
t41 -50v54h157v-483zM228 127q25 0 41 36v158q-16 34 -41 34q-51 0 -51 -113q0 -115 51 -115z" />
    <glyph glyph-name="adieresis" unicode="&#xe4;" 
d="M405 615q0 -34 -23.5 -57t-57.5 -23q-33 0 -56.5 23t-23.5 57t23.5 57t56.5 23q34 0 57.5 -23t23.5 -57zM219 615q0 -33 -23 -56.5t-57 -23.5q-33 0 -56.5 23.5t-23.5 56.5t23.5 56.5t56.5 23.5q34 0 57 -23.5t23 -56.5zM426 0h-157v54q-32 -66 -98 -66q-74 0 -114.5 66
t-40.5 188q0 119 40.5 186t114.5 67q30 0 57 -16t41 -50v54h157v-483zM228 127q25 0 41 36v158q-16 34 -41 34q-51 0 -51 -113q0 -115 51 -115z" />
    <glyph glyph-name="aring" unicode="&#xe5;" 
d="M231 544q-39 0 -67 28t-28 67t28 66.5t67 27.5t66 -27.5t27 -66.5t-27 -67t-66 -28zM231 608q13 0 21.5 9t8.5 22t-8.5 22t-21.5 9t-22 -9t-9 -22t9 -22t22 -9zM426 0h-157v54q-32 -66 -98 -66q-74 0 -114.5 66t-40.5 188q0 119 40.5 186t114.5 67q30 0 57 -16t41 -50v54
h157v-483zM228 127q25 0 41 36v158q-16 34 -41 34q-51 0 -51 -113q0 -115 51 -115z" />
    <glyph glyph-name="ae" unicode="&#xe6;" horiz-adv-x="695" 
d="M426 0h-157v54q-32 -66 -98 -66q-74 0 -114.5 66t-40.5 188q0 119 40.5 186t114.5 67q30 0 57 -16t41 -50v54h157v-50q26 62 95 62q80 0 120.5 -67.5t40.5 -182.5v-55h-256v-3q5 -68 84 -68q43 0 81 36l69 -101q-47 -66 -121 -66q-85 0 -113 73v-61zM228 127q25 0 41 36
v158q-16 34 -41 34q-51 0 -51 -113q0 -115 51 -115zM532 297q0 71 -52 71q-54 0 -54 -71h106z" />
    <glyph glyph-name="ccedilla" unicode="&#xe7;" horiz-adv-x="371" 
d="M226 -196q-55 0 -95 33l27 57q33 -28 63 -28q35 0 35 28q0 20 -18 20q-13 0 -23 -12l-53 30l22 60q-78 15 -123 82t-45 168q0 114 57 183.5t153 69.5q43 0 79.5 -12.5t55.5 -29.5l-45 -123q-29 26 -57 26q-37 0 -59.5 -31t-22.5 -83t22.5 -83.5t59.5 -31.5q28 0 57 26
l45 -123q-32 -32 -106 -40l-16 -37q15 9 29 9q27 0 44.5 -20t17.5 -51q0 -41 -28.5 -64t-75.5 -23z" />
    <glyph glyph-name="egrave" unicode="&#xe8;" horiz-adv-x="435" 
d="M233 -12q-101 0 -159 69.5t-58 184.5q0 110 55.5 181.5t153.5 71.5t147.5 -67.5t49.5 -182.5v-55h-255q1 -33 21.5 -54t62.5 -21t81 37l69 -90q-32 -36 -77.5 -55t-90.5 -19zM273 297q0 71 -53 71t-53 -71h106zM302 556h-97l-112 144h129z" />
    <glyph glyph-name="eacute" unicode="&#xe9;" horiz-adv-x="435" 
d="M233 -12q-101 0 -159 69.5t-58 184.5q0 110 55.5 181.5t153.5 71.5t147.5 -67.5t49.5 -182.5v-55h-255q1 -33 21.5 -54t62.5 -21t81 37l69 -90q-32 -36 -77.5 -55t-90.5 -19zM273 297q0 71 -53 71t-53 -71h106zM361 700l-112 -144h-97l80 144h129z" />
    <glyph glyph-name="ecircumflex" unicode="&#xea;" horiz-adv-x="435" 
d="M233 -12q-101 0 -159 69.5t-58 184.5q0 110 55.5 181.5t153.5 71.5t147.5 -67.5t49.5 -182.5v-55h-255q1 -33 21.5 -54t62.5 -21t81 37l69 -90q-32 -36 -77.5 -55t-90.5 -19zM273 297q0 71 -53 71t-53 -71h106zM352 556h-84l-47 79l-45 -79h-84l60 144h138z" />
    <glyph glyph-name="edieresis" unicode="&#xeb;" horiz-adv-x="435" 
d="M233 -12q-101 0 -159 69.5t-58 184.5q0 110 55.5 181.5t153.5 71.5t147.5 -67.5t49.5 -182.5v-55h-255q1 -33 21.5 -54t62.5 -21t81 37l69 -90q-32 -36 -77.5 -55t-90.5 -19zM273 297q0 71 -53 71t-53 -71h106zM394 615q0 -34 -23.5 -57t-57.5 -23q-33 0 -56.5 23
t-23.5 57t23.5 57t56.5 23q34 0 57.5 -23t23.5 -57zM208 615q0 -33 -23 -56.5t-57 -23.5q-33 0 -56.5 23.5t-23.5 56.5t23.5 56.5t56.5 23.5q34 0 57 -23.5t23 -56.5z" />
    <glyph glyph-name="igrave" unicode="&#xec;" horiz-adv-x="228" 
d="M190 556h-97l-112 144h129zM193 0h-158v483h158v-483z" />
    <glyph glyph-name="iacute" unicode="&#xed;" horiz-adv-x="228" 
d="M247 700l-112 -144h-97l80 144h129zM193 0h-158v483h158v-483z" />
    <glyph glyph-name="icircumflex" unicode="&#xee;" horiz-adv-x="228" 
d="M245 556h-84l-47 79l-45 -79h-84l60 144h138zM193 0h-158v483h158v-483z" />
    <glyph glyph-name="idieresis" unicode="&#xef;" horiz-adv-x="228" 
d="M287 615q0 -34 -23.5 -57t-57.5 -23q-33 0 -56.5 23t-23.5 57t23.5 57t56.5 23q34 0 57.5 -23t23.5 -57zM101 615q0 -33 -23 -56.5t-57 -23.5q-33 0 -56.5 23.5t-23.5 56.5t23.5 56.5t56.5 23.5q34 0 57 -23.5t23 -56.5zM193 0h-158v483h158v-483z" />
    <glyph glyph-name="eth" unicode="&#xf0;" horiz-adv-x="451" 
d="M154 483l-32 69l91 40q-8 19 -33 61l137 62q24 -42 34 -63l60 26l29 -68l-59 -27q55 -145 55 -298q0 -144 -52.5 -220.5t-158.5 -76.5q-101 0 -155 66.5t-54 165.5q0 96 43.5 163t116.5 67q69 0 103 -75q-9 71 -37 147zM225 127q49 0 49 92t-49 92q-47 0 -47 -92t47 -92z
" />
    <glyph glyph-name="ntilde" unicode="&#xf1;" 
d="M427 0h-158v318q0 38 -29 38q-30 0 -47 -47v-309h-158v483h158v-58q14 27 50 48.5t70 21.5q59 0 86.5 -31t27.5 -84v-380zM278 554q-22 0 -37.5 13.5t-27 27t-21.5 13.5q-24 0 -24 -48h-79q0 61 26 97.5t71 36.5q22 0 37.5 -13t27 -26.5t21.5 -13.5q24 0 24 47h79
q0 -61 -26 -97.5t-71 -36.5z" />
    <glyph glyph-name="ograve" unicode="&#xf2;" horiz-adv-x="451" 
d="M225 -12q-101 0 -155 73t-54 181t54 180.5t155 72.5q102 0 156.5 -72.5t54.5 -180.5t-54.5 -181t-156.5 -73zM225 127q49 0 49 115q0 114 -49 114q-47 0 -47 -114q0 -115 47 -115zM302 556h-97l-112 144h129z" />
    <glyph glyph-name="oacute" unicode="&#xf3;" horiz-adv-x="451" 
d="M225 -12q-101 0 -155 73t-54 181t54 180.5t155 72.5q102 0 156.5 -72.5t54.5 -180.5t-54.5 -181t-156.5 -73zM225 127q49 0 49 115q0 114 -49 114q-47 0 -47 -114q0 -115 47 -115zM360 700l-112 -144h-97l80 144h129z" />
    <glyph glyph-name="ocircumflex" unicode="&#xf4;" horiz-adv-x="451" 
d="M225 -12q-101 0 -155 73t-54 181t54 180.5t155 72.5q102 0 156.5 -72.5t54.5 -180.5t-54.5 -181t-156.5 -73zM225 127q49 0 49 115q0 114 -49 114q-47 0 -47 -114q0 -115 47 -115zM357 556h-84l-47 79l-45 -79h-84l60 144h138z" />
    <glyph glyph-name="otilde" unicode="&#xf5;" horiz-adv-x="451" 
d="M225 -12q-101 0 -155 73t-54 181t54 180.5t155 72.5q102 0 156.5 -72.5t54.5 -180.5t-54.5 -181t-156.5 -73zM225 127q49 0 49 115q0 114 -49 114q-47 0 -47 -114q0 -115 47 -115zM272 554q-21 0 -37 13.5t-27.5 27t-21.5 13.5q-24 0 -24 -48h-79q0 61 26 97.5t71 36.5
q22 0 37.5 -13t27 -26.5t21.5 -13.5q24 0 24 47h79q0 -61 -26 -97.5t-71 -36.5z" />
    <glyph glyph-name="odieresis" unicode="&#xf6;" horiz-adv-x="451" 
d="M225 -12q-101 0 -155 73t-54 181t54 180.5t155 72.5q102 0 156.5 -72.5t54.5 -180.5t-54.5 -181t-156.5 -73zM225 127q49 0 49 115q0 114 -49 114q-47 0 -47 -114q0 -115 47 -115zM399 615q0 -34 -23.5 -57t-57.5 -23q-33 0 -56.5 23t-23.5 57t23.5 57t56.5 23
q34 0 57.5 -23t23.5 -57zM213 615q0 -33 -23 -56.5t-57 -23.5q-33 0 -56.5 23.5t-23.5 56.5t23.5 56.5t56.5 23.5q34 0 57 -23.5t23 -56.5z" />
    <glyph glyph-name="divide" unicode="&#xf7;" horiz-adv-x="374" 
d="M257 485q0 -29 -20.5 -49.5t-49.5 -20.5q-28 0 -48.5 20.5t-20.5 49.5t20 49t49 20t49.5 -20t20.5 -49zM345 291h-316v93h316v-93zM257 190q0 -29 -20.5 -49.5t-49.5 -20.5t-49 20.5t-20 49.5q0 28 20 48.5t49 20.5t49.5 -20t20.5 -49z" />
    <glyph glyph-name="oslash" unicode="&#xf8;" horiz-adv-x="451" 
d="M103 0h-82l45 66q-50 68 -50 176t54 180.5t155 72.5q62 0 111 -31l13 19h81l-45 -66q51 -69 51 -175q0 -108 -54.5 -181t-156.5 -73q-63 0 -110 30zM178 242v-11l76 111q-11 14 -29 14q-47 0 -47 -114zM225 127q49 0 49 115v10l-76 -112q10 -13 27 -13z" />
    <glyph glyph-name="ugrave" unicode="&#xf9;" 
d="M427 0h-158v56q-14 -27 -49.5 -47.5t-70.5 -20.5q-114 0 -114 113v382h158v-319q0 -37 29 -37q15 0 27.5 13t19.5 32v311h158v-483zM307 556h-97l-112 144h129z" />
    <glyph glyph-name="uacute" unicode="&#xfa;" 
d="M427 0h-158v56q-14 -27 -49.5 -47.5t-70.5 -20.5q-114 0 -114 113v382h158v-319q0 -37 29 -37q15 0 27.5 13t19.5 32v311h158v-483zM365 700l-112 -144h-97l80 144h129z" />
    <glyph glyph-name="ucircumflex" unicode="&#xfb;" 
d="M427 0h-158v56q-14 -27 -49.5 -47.5t-70.5 -20.5q-114 0 -114 113v382h158v-319q0 -37 29 -37q15 0 27.5 13t19.5 32v311h158v-483zM362 556h-84l-47 79l-45 -79h-84l60 144h138z" />
    <glyph glyph-name="udieresis" unicode="&#xfc;" 
d="M427 0h-158v56q-14 -27 -49.5 -47.5t-70.5 -20.5q-114 0 -114 113v382h158v-319q0 -37 29 -37q15 0 27.5 13t19.5 32v311h158v-483zM405 615q0 -34 -23.5 -57t-57.5 -23q-33 0 -56.5 23t-23.5 57t23.5 57t56.5 23q34 0 57.5 -23t23.5 -57zM219 615q0 -33 -23 -56.5
t-57 -23.5q-33 0 -56.5 23.5t-23.5 56.5t23.5 56.5t56.5 23.5q34 0 57 -23.5t23 -56.5z" />
    <glyph glyph-name="yacute" unicode="&#xfd;" 
d="M365 700l-112 -144h-97l80 144h129zM213 -196q-114 0 -169 55l49 123q43 -45 102 -45q74 0 74 95v49q-14 -26 -49.5 -46.5t-70.5 -20.5q-114 0 -114 112v357h158v-294q0 -36 29 -36q31 0 47 44v286h158v-451q0 -110 -53.5 -169t-160.5 -59z" />
    <glyph glyph-name="thorn" unicode="&#xfe;" 
d="M291 -12q-70 0 -98 65v-237h-158v851h158v-237q30 65 98 65q74 0 114.5 -66t40.5 -188q0 -118 -41 -185.5t-114 -67.5zM234 127q51 0 51 114q0 115 -51 115q-28 0 -41 -33v-162q14 -34 41 -34z" />
    <glyph glyph-name="ydieresis" unicode="&#xff;" 
d="M405 615q0 -34 -23.5 -57t-57.5 -23q-33 0 -56.5 23t-23.5 57t23.5 57t56.5 23q34 0 57.5 -23t23.5 -57zM219 615q0 -33 -23 -56.5t-57 -23.5q-33 0 -56.5 23.5t-23.5 56.5t23.5 56.5t56.5 23.5q34 0 57 -23.5t23 -56.5zM213 -196q-114 0 -169 55l49 123q43 -45 102 -45
q74 0 74 95v49q-14 -26 -49.5 -46.5t-70.5 -20.5q-114 0 -114 112v357h158v-294q0 -36 29 -36q31 0 47 44v286h158v-451q0 -110 -53.5 -169t-160.5 -59z" />
    <glyph glyph-name="dotlessi" unicode="&#x131;" horiz-adv-x="228" 
d="M193 0h-158v483h158v-483z" />
    <glyph glyph-name="Lslash" unicode="&#x141;" horiz-adv-x="402" 
d="M11 190v142l36 21v314h177v-212l57 33v-142l-57 -33v-159h159v-154h-336v211z" />
    <glyph glyph-name="lslash" unicode="&#x142;" horiz-adv-x="281" 
d="M11 207v112l40 23v325h158v-235l41 24v-112l-41 -24v-156q0 -37 22 -37q15 0 23 8l25 -125q-32 -22 -93 -22q-72 0 -103.5 34.5t-31.5 107.5v100z" />
    <glyph glyph-name="OE" unicode="&#x152;" horiz-adv-x="671" 
d="M653 0h-336v34q-14 -20 -41.5 -33t-53.5 -13q-101 0 -152.5 93.5t-51.5 251.5t51.5 251t152.5 93q26 0 53.5 -12t41.5 -32v34h336v-154h-160v-98h153v-154h-153v-107h160v-154zM317 204v259q-17 58 -55 58q-64 0 -64 -188q0 -189 64 -189q38 0 55 60z" />
    <glyph glyph-name="oe" unicode="&#x153;" horiz-adv-x="693" 
d="M680 190h-255q2 -33 22.5 -54t61.5 -21q42 0 81 37l69 -90q-32 -36 -77.5 -55t-90.5 -19q-86 0 -136 67q-48 -67 -130 -67q-101 0 -155 73t-54 181t54 180.5t155 72.5q83 0 130 -66q48 66 128 66q98 0 147.5 -68.5t49.5 -184.5v-52zM425 297h106q0 71 -53 71t-53 -71z
M274 242q0 114 -49 114q-47 0 -47 -114q0 -115 47 -115q49 0 49 115z" />
    <glyph glyph-name="Scaron" unicode="&#x160;" horiz-adv-x="435" 
d="M313 728h-138l-63 144h84l48 -79l44 79h84zM205 -12q-125 0 -201 71l71 138q46 -53 118 -53q22 0 34.5 12t12.5 31q0 22 -22.5 40.5t-54 35.5t-63.5 40t-54.5 66t-22.5 102q0 84 57.5 145.5t160.5 61.5q105 0 171 -61l-64 -136q-41 41 -100 41q-21 0 -33 -11.5t-12 -29.5
q0 -21 22 -39t54 -36t64 -41.5t54 -66t22 -98.5q0 -95 -58.5 -153.5t-155.5 -58.5z" />
    <glyph glyph-name="scaron" unicode="&#x161;" horiz-adv-x="382" 
d="M186 -12q-121 0 -182 65l60 109q51 -51 107 -51q50 0 50 31q0 13 -20.5 22t-50 18t-58.5 24.5t-49.5 50t-20.5 84.5q0 65 47 109.5t134 44.5q93 0 167 -60l-60 -106q-16 16 -44.5 29.5t-58.5 13.5q-17 0 -28.5 -7.5t-11.5 -18.5q0 -12 21 -20.5t51 -18.5t60 -26t51 -50.5
t21 -83.5q0 -70 -51 -114.5t-134 -44.5zM267 556h-138l-63 144h84l48 -79l44 79h84z" />
    <glyph glyph-name="Ydieresis" unicode="&#x178;" horiz-adv-x="489" 
d="M418 790q0 -34 -23.5 -57t-57.5 -23q-33 0 -56.5 23t-23.5 57t23.5 57t56.5 23q34 0 57.5 -23t23.5 -57zM232 790q0 -33 -23 -56.5t-57 -23.5q-33 0 -56.5 23.5t-23.5 56.5t23.5 56.5t56.5 23.5q34 0 57 -23.5t23 -56.5zM333 0h-177v269l-163 398h186l65 -232l66 232h186
l-163 -398v-269z" />
    <glyph glyph-name="Zcaron" unicode="&#x17d;" horiz-adv-x="412" 
d="M277 728h-138l-63 144h84l48 -79l44 79h84zM386 0h-360v147l153 366h-153v154h353v-140l-157 -373h164v-154z" />
    <glyph glyph-name="zcaron" unicode="&#x17e;" horiz-adv-x="368" 
d="M349 0h-330v116l135 230h-135v137h326v-111l-137 -235h141v-137zM252 556h-138l-63 144h84l48 -79l44 79h84z" />
    <glyph glyph-name="florin" unicode="&#x192;" horiz-adv-x="431" 
d="M184 -161h-179l85 391h-37v137h68l34 158q15 68 69.5 110t120.5 42q62 0 96 -22l-42 -142q-11 10 -28 10q-35 0 -45 -46l-24 -110h67v-137h-98z" />
    <glyph glyph-name="circumflex" unicode="&#x2c6;" horiz-adv-x="260" 
d="M260 556h-84l-47 79l-45 -79h-84l60 144h138z" />
    <glyph glyph-name="caron" unicode="&#x2c7;" horiz-adv-x="260" 
d="M201 556h-138l-63 144h84l48 -79l44 79h84z" />
    <glyph glyph-name="breve" unicode="&#x2d8;" horiz-adv-x="258" 
d="M258 617q-47 -65 -129 -65q-80 0 -129 65l70 52q22 -30 59 -30q38 0 59 30z" />
    <glyph glyph-name="dotaccent" unicode="&#x2d9;" horiz-adv-x="210" 
d="M105 540q-32 0 -55.5 23t-23.5 56t23.5 56t55.5 23q33 0 56.5 -23t23.5 -56t-23.5 -56t-56.5 -23z" />
    <glyph glyph-name="ring" unicode="&#x2da;" horiz-adv-x="188" 
d="M95 544q-39 0 -67 28t-28 67t28 66.5t67 27.5t66 -27.5t27 -66.5t-27 -67t-66 -28zM95 608q13 0 21.5 9t8.5 22t-8.5 22t-21.5 9t-22 -9t-9 -22t9 -22t22 -9z" />
    <glyph glyph-name="ogonek" unicode="&#x2db;" horiz-adv-x="172" 
d="M113 -101l59 -32q-25 -53 -81 -53q-42 0 -66.5 22t-24.5 66q0 72 70 132l52 -34q-49 -37 -49 -92q0 -32 19 -32q14 0 21 23z" />
    <glyph glyph-name="tilde" unicode="&#x2dc;" horiz-adv-x="286" 
d="M189 554q-21 0 -37 13.5t-27.5 27t-21.5 13.5q-24 0 -24 -48h-79q0 61 26 97.5t71 36.5q22 0 37.5 -13t27 -26.5t21.5 -13.5q24 0 24 47h79q0 -61 -26 -97.5t-71 -36.5z" />
    <glyph glyph-name="hungarumlaut" unicode="&#x2dd;" horiz-adv-x="303" 
d="M163 700l-83 -144h-80l51 144h112zM303 700l-83 -144h-80l51 144h112z" />
    <glyph glyph-name="pi" unicode="&#x3c0;" horiz-adv-x="509" 
d="M455 0h-157v362h-87v-362h-158v362h-35v138h473v-138h-36v-362z" />
    <glyph glyph-name="endash" unicode="&#x2013;" horiz-adv-x="460" 
d="M430 176h-400v132h400v-132z" />
    <glyph glyph-name="emdash" unicode="&#x2014;" horiz-adv-x="640" 
d="M610 176h-580v132h580v-132z" />
    <glyph glyph-name="quoteleft" unicode="&#x2018;" horiz-adv-x="273" 
d="M33 474q0 122 116 204l65 -53q-25 -12 -51 -40.5t-34 -54.5q12 3 23 3q34 0 56.5 -23.5t22.5 -60.5q0 -39 -27.5 -66.5t-65.5 -27.5q-43 0 -74 32.5t-31 86.5z" />
    <glyph glyph-name="quoteright" unicode="&#x2019;" horiz-adv-x="273" 
d="M237 559q0 -124 -115 -205l-66 53q25 13 51 41t34 55q-8 -4 -23 -4q-33 0 -55.5 23.5t-22.5 60.5q0 39 27.5 66.5t65.5 27.5q43 0 73.5 -32t30.5 -86z" />
    <glyph glyph-name="quotesinglbase" unicode="&#x201a;" horiz-adv-x="273" 
d="M237 62q0 -122 -115 -205l-66 53q25 13 51 41t34 55q-8 -4 -23 -4q-33 0 -55.5 23.5t-22.5 60.5q0 39 27.5 66.5t65.5 27.5q43 0 73.5 -32t30.5 -86z" />
    <glyph glyph-name="quotedblleft" unicode="&#x201c;" horiz-adv-x="502" 
d="M36 474q0 122 116 204l65 -53q-25 -12 -51 -40.5t-34 -54.5q12 3 23 3q34 0 56.5 -23.5t22.5 -60.5q0 -39 -27.5 -66.5t-65.5 -27.5q-43 0 -74 32.5t-31 86.5zM265 474q0 123 115 204l66 -53q-25 -12 -51.5 -40.5t-34.5 -54.5q15 3 24 3q33 0 55.5 -23.5t22.5 -60.5
q0 -39 -27.5 -66.5t-65.5 -27.5q-43 0 -73.5 32.5t-30.5 86.5z" />
    <glyph glyph-name="quotedblright" unicode="&#x201d;" horiz-adv-x="502" 
d="M465 559q0 -124 -115 -205l-65 53q25 13 51 41t34 55q-8 -4 -23 -4q-34 0 -56.5 23.5t-22.5 60.5q0 39 27.5 66.5t65.5 27.5q43 0 73.5 -32t30.5 -86zM237 559q0 -124 -115 -205l-66 53q25 13 51 41t34 55q-8 -4 -23 -4q-33 0 -55.5 23.5t-22.5 60.5q0 39 27.5 66.5
t65.5 27.5q43 0 73.5 -32t30.5 -86z" />
    <glyph glyph-name="quotedblbase" unicode="&#x201e;" horiz-adv-x="502" 
d="M237 62q0 -122 -115 -205l-66 53q25 13 51 41t34 55q-8 -4 -23 -4q-33 0 -55.5 23.5t-22.5 60.5q0 39 27.5 66.5t65.5 27.5q43 0 73.5 -32t30.5 -86zM465 62q0 -122 -115 -205l-65 53q25 13 51 41t34 55q-8 -4 -23 -4q-34 0 -56.5 23.5t-22.5 60.5q0 39 27.5 66.5
t65.5 27.5q43 0 73.5 -32t30.5 -86z" />
    <glyph glyph-name="dagger" unicode="&#x2020;" horiz-adv-x="285" 
d="M267 517l-89 4l4 -194h-80l5 194l-89 -4v73l89 -3l-5 90h80l-4 -90l89 3v-73z" />
    <glyph glyph-name="daggerdbl" unicode="&#x2021;" horiz-adv-x="285" 
d="M267 590v-73l-89 4v-183l89 4v-73l-89 3l4 -92h-80l4 92l-88 -3v73l88 -4v183l-88 -4v73l88 -3l-4 90h80l-4 -90z" />
    <glyph glyph-name="bullet" unicode="&#x2022;" horiz-adv-x="358" 
d="M305 242q0 -51 -36.5 -87.5t-88.5 -36.5t-88.5 36.5t-36.5 87.5q0 52 36.5 88.5t88.5 36.5t88.5 -36.5t36.5 -88.5z" />
    <glyph glyph-name="ellipsis" unicode="&#x2026;" horiz-adv-x="810" 
d="M231 84q0 -39 -28.5 -67.5t-67.5 -28.5t-67.5 28.5t-28.5 67.5t28.5 67.5t67.5 28.5t67.5 -28.5t28.5 -67.5zM501 84q0 -39 -28 -67.5t-68 -28.5q-39 0 -67.5 28.5t-28.5 67.5t28.5 67.5t67.5 28.5q40 0 68 -28.5t28 -67.5zM771 84q0 -39 -28 -67.5t-68 -28.5
q-39 0 -67.5 28.5t-28.5 67.5t28.5 67.5t67.5 28.5q40 0 68 -28.5t28 -67.5z" />
    <glyph glyph-name="perthousand" unicode="&#x2030;" horiz-adv-x="894" 
d="M289 509q0 -71 -38 -118.5t-100 -47.5q-63 0 -101 47.5t-38 118.5q0 72 38.5 120t100.5 48t100 -48t38 -120zM475 667l-285 -667h-60l284 667h61zM592 154q0 -71 -38 -118.5t-100 -47.5q-63 0 -101 47t-38 119t38 120.5t101 48.5q62 0 100 -48.5t38 -120.5zM191 509
q0 74 -40 74t-40 -74q0 -72 40 -72t40 72zM494 154q0 74 -40 74t-40 -74q0 -72 40 -72t40 72zM881 154q0 -71 -38 -118.5t-100 -47.5q-63 0 -101 47.5t-38 118.5q0 72 38.5 120.5t100.5 48.5t100 -48.5t38 -120.5zM783 154q0 74 -40 74t-40 -74q0 -72 40 -72t40 72z" />
    <glyph glyph-name="guilsinglleft" unicode="&#x2039;" horiz-adv-x="267" 
d="M237 63h-117l-90 180l90 177h117l-90 -177z" />
    <glyph glyph-name="guilsinglright" unicode="&#x203a;" horiz-adv-x="267" 
d="M237 243l-90 -180h-117l90 180l-90 177h117z" />
    <glyph glyph-name="fraction" unicode="&#x2044;" horiz-adv-x="151" 
d="M248 667l-285 -667h-60l284 667h61z" />
    <glyph glyph-name="Euro" unicode="&#x20ac;" horiz-adv-x="488" 
d="M283 -12q-98 0 -157 60.5t-78 169.5h-35v94h26v21v24h-26v94h36q20 107 78.5 167t155.5 60q47 0 82.5 -16.5t57.5 -47.5t34 -58t23 -64l-139 -51q-8 41 -21 61t-37 20q-42 0 -56 -71h77v-94h-85v-24v-21h85v-94h-77q14 -74 56 -74q48 0 59 93l138 -50q-47 -199 -197 -199
z" />
    <glyph glyph-name="trademark" unicode="&#x2122;" horiz-adv-x="374" 
d="M339 447h-28v182l-55 -182h-8l-55 182v-182h-28v220h43l44 -157l44 157h43v-220zM129 641h-42v-194h-28v194h-42v26h112v-26z" />
    <glyph glyph-name="Omega" unicode="&#x2126;" horiz-adv-x="519" 
d="M28 0v154h84q-95 83 -95 222q0 137 61.5 219.5t180.5 82.5q120 0 181.5 -81.5t61.5 -220.5t-98 -222h87v-154h-207v154q18 8 28.5 68t10.5 111q0 188 -64 188q-63 0 -63 -188q0 -53 10.5 -113.5t28.5 -65.5v-154h-207z" />
    <glyph glyph-name="partialdiff" unicode="&#x2202;" horiz-adv-x="451" 
d="M225 -12q-101 0 -155 66.5t-54 165.5q0 96 43.5 163t116.5 67q69 0 103 -75q-19 146 -97 250l131 60q62 -90 92.5 -193.5t30.5 -249.5q0 -114 -54 -184t-157 -70zM225 127q49 0 49 92t-49 92q-47 0 -47 -92t47 -92z" />
    <glyph glyph-name="Delta" unicode="&#x2206;" horiz-adv-x="490" 
d="M496 0h-502l149 667h203zM293 154l-48 322l-48 -322h96z" />
    <glyph glyph-name="product" unicode="&#x220f;" horiz-adv-x="606" 
d="M540 -90h-176v603h-121v-603h-177v603h-48v154h570v-154h-48v-603z" />
    <glyph glyph-name="summation" unicode="&#x2211;" horiz-adv-x="399" 
d="M212 513l107 -217l-113 -232h168v-154h-346v161l109 227l-109 215v154h346v-154h-162z" />
    <glyph glyph-name="minus" unicode="&#x2212;" horiz-adv-x="388" 
d="M359 288h-330v93h330v-93z" />
    <glyph glyph-name="radical" unicode="&#x221a;" horiz-adv-x="466" 
d="M288 0h-99l-62 287l-74 -14l-17 92l162 30l43 -239l110 511h97z" />
    <glyph glyph-name="infinity" unicode="&#x221e;" horiz-adv-x="509" 
d="M149 152q-60 0 -90 54.5t-30 129.5t30 129.5t90 54.5q70 0 105 -95q15 42 43.5 68t62.5 26q60 0 90 -54.5t30 -129.5t-30 -129t-90 -54q-34 0 -62.5 26t-43.5 68q-34 -94 -105 -94zM344 245q21 0 34 24.5t13 66.5q0 41 -13 66t-34 25q-36 0 -51 -91q16 -91 51 -91z
M165 245q35 0 51 91q-16 91 -51 91q-20 0 -33.5 -25t-13.5 -66q0 -42 13.5 -66.5t33.5 -24.5z" />
    <glyph glyph-name="integral" unicode="&#x222b;" horiz-adv-x="254" 
d="M43 -100h-26v101h26q12 0 20.5 8.5t8.5 21.5v605q0 56 41.5 94t97.5 38h26v-101h-26q-12 0 -20.5 -9t-8.5 -22v-605q0 -56 -41.5 -93.5t-97.5 -37.5z" />
    <glyph glyph-name="approxequal" unicode="&#x2248;" horiz-adv-x="388" 
d="M29 195v97q37 -20 82 -20q34 0 79.5 18t86.5 18q47 0 82 -16v-98q-37 20 -82 20q-34 0 -79 -18t-87 -18q-45 0 -82 17zM29 376v98q39 -21 82 -21q34 0 79.5 18t86.5 18q46 0 82 -15v-98q-37 20 -82 20q-34 0 -79 -18.5t-87 -18.5q-45 0 -82 17z" />
    <glyph glyph-name="notequal" unicode="&#x2260;" horiz-adv-x="388" 
d="M121 93h-60l43 102h-75v93h115l39 92h-154v94h193l43 100h62l-43 -100h75v-94h-115l-40 -92h155v-93h-195z" />
    <glyph glyph-name="lessequal" unicode="&#x2264;" horiz-adv-x="388" 
d="M359 150l-330 128v114l330 128v-112l-224 -74l224 -72v-112zM359 9h-330v94h330v-94z" />
    <glyph glyph-name="greaterequal" unicode="&#x2265;" horiz-adv-x="388" 
d="M359 278l-330 -128v112l223 72l-223 74v112l330 -128v-114zM359 9h-330v94h330v-94z" />
    <glyph glyph-name="lozenge" unicode="&#x25ca;" horiz-adv-x="375" 
d="M198 0h-21l-158 334l158 333h21l158 -333zM188 41l132 293l-133 292l-132 -292z" />
    <glyph glyph-name="apple" unicode="&#xf8ff;" horiz-adv-x="667" 
d="M214 154v61h-61q-25 0 -43 -18t-18 -43q0 -26 17.5 -44t43.5 -18t43.5 18t17.5 44zM214 452v62q0 25 -17.5 43t-42.5 18q-26 0 -44 -17.5t-18 -43.5t18 -44t44 -18h60zM265 265h137v137h-137v-137zM575 154q0 25 -18 43t-43 18h-61v-61q0 -26 17.5 -44t43.5 -18t43.5 18
t17.5 44zM575 514q0 25 -18 43t-43 18q-26 0 -43.5 -17.5t-17.5 -43.5v-62h61q25 0 43 18.5t18 43.5zM625 154q0 -46 -32.5 -79t-78.5 -33t-79 33t-33 79v61h-137v-61q0 -46 -33 -79t-79 -33t-78.5 33t-32.5 79t32.5 78.5t78.5 32.5h61v137h-60q-46 0 -79 33t-33 79t33 78.5
t79 32.5t78.5 -32.5t32.5 -78.5v-62h137v62q0 46 33 78.5t79 32.5t78.5 -32.5t32.5 -78.5t-32.5 -79t-78.5 -33h-61v-137h61q46 0 78.5 -32.5t32.5 -78.5z" />
    </font>
</defs>
</svg>
